<svg width="294" height="315" viewBox="0 0 294 315" fill="none" xmlns="http://www.w3.org/2000/svg">
<path d="M80.9249 278.659C115.203 278.659 167.525 263.424 211.272 240.477C233.149 229.002 252.896 215.59 267.178 201.176C281.444 186.778 290.285 171.35 290.3 155.831C296.306 137.199 292.758 118.453 283.009 100.831C273.255 83.2012 257.29 66.6844 238.447 52.4995C200.767 24.135 151.509 5.04491 117.215 5.04491C82.859 5.04491 59.6485 27.3255 45.0402 57.2773C30.4329 87.2268 24.3989 124.892 24.3989 155.792C24.3989 163.508 24.2088 171.21 24.0097 178.784C23.9959 179.311 23.982 179.836 23.9681 180.362C23.7826 187.391 23.6001 194.304 23.5669 201.002C23.4955 215.396 24.1129 228.818 26.8771 240.317C29.642 251.818 34.5596 261.414 43.1018 268.13C51.6435 274.846 63.7773 278.659 80.9249 278.659Z" fill="url(#paint0_linear_39_311)" fill-opacity="0.2" stroke="url(#paint1_linear_39_311)" stroke-width="0.491228"/>
<path d="M240.41 151.272C228.96 173.87 213.39 176.27 208.799 176.498V176.517C208.799 176.517 208.933 176.528 208.59 176.521C208.248 176.528 208.382 176.517 208.382 176.517V176.498C204.208 176.311 193.371 174.639 183.095 161.341C180.927 158.536 178.777 155.211 176.781 151.272C163.479 125.022 173.151 111.503 173.151 111.503L208.382 111.418V111.414L208.59 111.418L208.799 111.414V111.418L223.81 111.455L244.088 111.503C244.088 111.503 253.712 125.022 240.41 151.272Z" fill="url(#paint2_linear_39_311)"/>
<path d="M208.644 116.581C188.889 116.581 172.874 114.553 172.874 112.051C172.874 109.548 188.889 107.52 208.644 107.52C228.4 107.52 244.415 109.548 244.415 112.051C244.415 114.553 228.4 116.581 208.644 116.581Z" fill="url(#paint3_linear_39_311)"/>
<path opacity="0.3" d="M240.41 151.272C228.96 173.87 213.39 176.27 208.799 176.498V176.517C208.799 176.517 208.932 176.528 208.59 176.521C208.248 176.528 208.381 176.517 208.381 176.517V176.498C204.207 176.311 193.371 174.639 183.095 161.341C183.154 149.096 211.565 140.775 220.442 135.098C231.671 127.919 222.636 112.051 222.636 112.051C223.07 111.845 223.494 111.646 223.917 111.455L244.142 111.503C244.142 111.503 253.711 125.022 240.41 151.272Z" fill="url(#paint4_linear_39_311)"/>
<path d="M154.222 72.2497C143.921 72.2497 135.57 61.564 135.57 48.3825C135.57 35.2011 143.921 24.5154 154.222 24.5154C164.524 24.5154 172.875 35.2011 172.875 48.3825C172.875 61.564 164.524 72.2497 154.222 72.2497Z" fill="url(#paint5_linear_39_311)"/>
<path d="M272.021 53.7599C272.021 83.4523 242.646 107.519 206.411 107.519C200.844 107.519 195.443 106.952 190.282 105.881C161.844 99.994 140.8 78.8908 140.8 53.7599C140.8 24.0711 170.176 0.000488281 206.411 0.000488281C216.591 0.000488281 226.229 1.90021 234.83 5.291C256.835 13.9686 272.021 32.4136 272.021 53.7599Z" fill="url(#paint6_linear_39_311)"/>
<path d="M162.597 78.2995L213.185 82.7147C224.368 83.6908 234.015 74.9426 234.407 63.0515L234.824 50.3635C235.004 44.9055 230.825 40.3533 225.561 40.2175L153.445 38.3577C149.257 38.2498 145.902 42.0562 145.902 46.8433V57.9808C145.902 68.4306 153.268 77.4854 162.597 78.2995Z" fill="#F4F7FA"/>
<path d="M161.383 71.0438L215.513 75.0285C223.507 75.617 230.337 69.2981 230.602 60.8548L230.779 55.2511C230.949 49.8364 226.816 45.3005 221.616 45.1414L157.085 43.1687C152.854 43.0394 149.46 46.842 149.453 51.6452L149.447 56.6185C149.437 64.1161 154.726 70.5537 161.383 71.0438Z" fill="url(#paint7_linear_39_311)"/>
<path d="M193.117 66.1949C192.608 65.3575 192.299 64.4328 192.316 63.4553C192.371 60.2864 195.546 57.87 199.449 58.0672C203.397 58.2665 206.572 61.0577 206.499 64.2922C206.477 65.2899 206.119 66.1925 205.557 66.9784L193.117 66.1949Z" fill="#D8DEE8"/>
<path d="M159.809 64.0966C159.339 63.3014 159.05 62.4225 159.055 61.4923C159.069 58.4774 161.911 56.1713 165.436 56.3492C168.999 56.5291 171.893 59.1739 171.863 62.2481C171.854 63.1964 171.541 64.0554 171.043 64.8042L159.809 64.0966Z" fill="#D8DEE8"/>
<path opacity="0.3" d="M272.021 53.7599C272.021 83.4523 242.646 107.519 206.411 107.519C200.844 107.519 195.443 106.952 190.282 105.881C185.179 89.7738 214.017 72.1092 230.603 60.8544C250.922 47.0667 234.83 5.29102 234.83 5.29102C256.835 13.9686 272.021 32.4136 272.021 53.7599Z" fill="url(#paint8_linear_39_311)"/>
<path d="M263.067 81.6101C252.766 81.6101 244.415 70.9244 244.415 57.7429C244.415 44.5614 252.766 33.8757 263.067 33.8757C273.369 33.8757 281.72 44.5614 281.72 57.7429C281.72 70.9244 273.369 81.6101 263.067 81.6101Z" fill="url(#paint9_linear_39_311)"/>
<path d="M41.3103 289.486C52.7601 312.084 68.3301 314.485 72.9214 314.713V314.731C72.9214 314.731 72.7876 314.743 73.13 314.735C73.4725 314.743 73.3387 314.731 73.3387 314.731V314.713C77.5126 314.525 88.3492 312.854 98.6248 299.556C100.793 296.75 102.944 293.426 104.939 289.486C118.241 263.236 108.569 249.717 108.569 249.717L73.3387 249.633V249.629L73.13 249.633L72.9214 249.629V249.633L57.9107 249.669L37.6321 249.717C37.6321 249.717 28.0086 263.236 41.3103 289.486Z" fill="url(#paint10_linear_39_311)"/>
<path d="M73.0757 254.795C92.831 254.795 108.846 252.767 108.846 250.265C108.846 247.763 92.831 245.734 73.0757 245.734C53.3205 245.734 37.3057 247.763 37.3057 250.265C37.3057 252.767 53.3205 254.795 73.0757 254.795Z" fill="url(#paint11_linear_39_311)"/>
<path opacity="0.3" d="M41.3104 289.486C52.7602 312.084 68.3302 314.485 72.9215 314.713V314.731C72.9215 314.731 72.7877 314.742 73.1301 314.735C73.4726 314.742 73.3388 314.731 73.3388 314.731V314.713C77.5127 314.525 88.3494 312.854 98.6249 299.556C98.5659 287.31 70.155 278.99 61.2785 273.313C50.0496 266.134 59.0844 250.266 59.0844 250.266C58.6499 250.059 58.2266 249.861 57.8033 249.669L37.5785 249.717C37.5785 249.717 28.0087 263.236 41.3104 289.486Z" fill="url(#paint12_linear_39_311)"/>
<path d="M127.498 210.464C137.799 210.464 146.15 199.779 146.15 186.597C146.15 173.416 137.799 162.73 127.498 162.73C117.196 162.73 108.845 173.416 108.845 186.597C108.845 199.779 117.196 210.464 127.498 210.464Z" fill="url(#paint13_linear_39_311)"/>
<path d="M9.69873 191.974C9.69873 221.667 39.0746 245.734 75.3095 245.734C80.876 245.734 86.277 245.167 91.4386 244.095C119.876 238.208 140.92 217.105 140.92 191.974C140.92 162.285 111.544 138.215 75.3095 138.215C65.1296 138.215 55.4912 140.115 46.8907 143.505C24.8855 152.183 9.69873 170.628 9.69873 191.974Z" fill="url(#paint14_linear_39_311)"/>
<path d="M119.124 216.514L68.5357 220.929C57.3526 221.905 47.7053 213.157 47.3141 201.266L46.8967 188.578C46.7172 183.12 50.896 178.568 56.16 178.432L128.276 176.572C132.464 176.464 135.819 180.271 135.819 185.058V196.195C135.819 206.645 128.452 215.7 119.124 216.514Z" fill="#F4F7FA"/>
<path d="M120.337 209.258L66.2071 213.243C58.2128 213.832 51.3827 207.513 51.1173 199.069L50.9411 193.466C50.7709 188.051 54.9041 183.515 60.1036 183.356L124.634 181.383C128.866 181.254 132.26 185.057 132.266 189.86L132.273 194.833C132.283 202.331 126.994 208.768 120.337 209.258Z" fill="url(#paint15_linear_39_311)"/>
<path d="M88.6028 204.409C89.1122 203.572 89.4205 202.647 89.4036 201.67C89.3489 198.501 86.1732 196.085 82.2705 196.282C78.3226 196.481 75.1476 199.272 75.2205 202.507C75.2429 203.504 75.6011 204.407 76.163 205.193L88.6028 204.409Z" fill="#D8DEE8"/>
<path d="M121.911 202.311C122.38 201.516 122.67 200.637 122.665 199.707C122.65 196.692 119.809 194.386 116.284 194.564C112.721 194.744 109.827 197.389 109.857 200.463C109.866 201.411 110.179 202.27 110.677 203.019L121.911 202.311Z" fill="#D8DEE8"/>
<path opacity="0.3" d="M9.69873 191.974C9.69873 221.667 39.0746 245.734 75.3095 245.734C80.876 245.734 86.277 245.167 91.4386 244.095C96.5416 227.988 67.7031 210.324 51.1172 199.069C30.7983 185.281 46.8907 143.505 46.8907 143.505C24.8855 152.183 9.69873 170.628 9.69873 191.974Z" fill="url(#paint16_linear_39_311)"/>
<path d="M18.6525 219.825C28.954 219.825 37.305 209.139 37.305 195.957C37.305 182.776 28.954 172.09 18.6525 172.09C8.351 172.09 0 182.776 0 195.957C0 209.139 8.351 219.825 18.6525 219.825Z" fill="url(#paint17_linear_39_311)"/>
<defs>
<linearGradient id="paint0_linear_39_311" x1="158.403" y1="5.29053" x2="158.403" y2="278.413" gradientUnits="userSpaceOnUse">
<stop stop-color="#007BFF"/>
<stop offset="1" stop-color="#5BC0DE"/>
</linearGradient>
<linearGradient id="paint1_linear_39_311" x1="158.403" y1="5.29053" x2="158.403" y2="278.413" gradientUnits="userSpaceOnUse">
<stop stop-color="#FB6FBB"/>
<stop offset="0.326177" stop-color="#444B8C"/>
<stop offset="1" stop-color="#9571F6"/>
</linearGradient>
<linearGradient id="paint2_linear_39_311" x1="207.684" y1="-89.6961" x2="209.449" y2="323.163" gradientUnits="userSpaceOnUse">
<stop stop-color="#007BFF"/>
<stop offset="0.9964" stop-color="#6165D7"/>
</linearGradient>
<linearGradient id="paint3_linear_39_311" x1="208.506" y1="79.5492" x2="208.751" y2="136.983" gradientUnits="userSpaceOnUse">
<stop stop-color="#444B8C"/>
<stop offset="0.9964" stop-color="#26264F"/>
</linearGradient>
<linearGradient id="paint4_linear_39_311" x1="214.291" y1="-89.0334" x2="216.051" y2="322.754" gradientUnits="userSpaceOnUse">
<stop stop-color="#007BFF"/>
<stop offset="0.9964" stop-color="#6165D7"/>
</linearGradient>
<linearGradient id="paint5_linear_39_311" x1="135.57" y1="48.3825" x2="172.875" y2="48.3825" gradientUnits="userSpaceOnUse">
<stop stop-color="#444B8C"/>
<stop offset="0.9964" stop-color="#26264F"/>
</linearGradient>
<linearGradient id="paint6_linear_39_311" x1="140.8" y1="53.7598" x2="272.021" y2="53.7598" gradientUnits="userSpaceOnUse">
<stop stop-color="#007BFF"/>
<stop offset="0.9964" stop-color="#007BFF"/>
</linearGradient>
<linearGradient id="paint7_linear_39_311" x1="230.784" y1="59.116" x2="149.447" y2="59.116" gradientUnits="userSpaceOnUse">
<stop stop-color="#444B8C"/>
<stop offset="0.9964" stop-color="#26264F"/>
</linearGradient>
<linearGradient id="paint8_linear_39_311" x1="229.197" y1="-309.676" x2="231.962" y2="337.159" gradientUnits="userSpaceOnUse">
<stop stop-color="#007BFF"/>
<stop offset="0.9964" stop-color="#007BFF"/>
</linearGradient>
<linearGradient id="paint9_linear_39_311" x1="244.415" y1="57.7428" x2="281.72" y2="57.7428" gradientUnits="userSpaceOnUse">
<stop stop-color="#444B8C"/>
<stop offset="0.9964" stop-color="#26264F"/>
</linearGradient>
<linearGradient id="paint10_linear_39_311" x1="74.036" y1="48.5185" x2="72.2712" y2="461.377" gradientUnits="userSpaceOnUse">
<stop stop-color="#007BFF"/>
<stop offset="0.9964" stop-color="#6165D7"/>
</linearGradient>
<linearGradient id="paint11_linear_39_311" x1="73.2146" y1="217.764" x2="72.9692" y2="275.197" gradientUnits="userSpaceOnUse">
<stop stop-color="#444B8C"/>
<stop offset="0.9964" stop-color="#26264F"/>
</linearGradient>
<linearGradient id="paint12_linear_39_311" x1="67.4296" y1="49.181" x2="65.6695" y2="460.968" gradientUnits="userSpaceOnUse">
<stop stop-color="#007BFF"/>
<stop offset="0.9964" stop-color="#6165D7"/>
</linearGradient>
<linearGradient id="paint13_linear_39_311" x1="146.15" y1="186.597" x2="108.845" y2="186.597" gradientUnits="userSpaceOnUse">
<stop stop-color="#444B8C"/>
<stop offset="0.9964" stop-color="#26264F"/>
</linearGradient>
<linearGradient id="paint14_linear_39_311" x1="140.92" y1="191.974" x2="9.69875" y2="191.974" gradientUnits="userSpaceOnUse">
<stop stop-color="#007BFF"/>
<stop offset="0.9964" stop-color="#007BFF"/>
</linearGradient>
<linearGradient id="paint15_linear_39_311" x1="50.936" y1="197.331" x2="132.273" y2="197.331" gradientUnits="userSpaceOnUse">
<stop stop-color="#444B8C"/>
<stop offset="0.9964" stop-color="#26264F"/>
</linearGradient>
<linearGradient id="paint16_linear_39_311" x1="52.5234" y1="-171.462" x2="49.7587" y2="475.373" gradientUnits="userSpaceOnUse">
<stop stop-color="#007BFF"/>
<stop offset="0.9964" stop-color="#007BFF"/>
</linearGradient>
<linearGradient id="paint17_linear_39_311" x1="37.3051" y1="195.957" x2="-2.22356e-05" y2="195.957" gradientUnits="userSpaceOnUse">
<stop stop-color="#444B8C"/>
<stop offset="0.9964" stop-color="#26264F"/>
</linearGradient>
</defs>
</svg>
