<svg width="54" height="54" viewBox="0 0 54 54" fill="none" xmlns="http://www.w3.org/2000/svg">
<path d="M7.30647 18.1792H46.7662C47.3476 18.1792 47.9052 17.9483 48.3163 17.5371C48.7275 17.126 48.9584 16.5684 48.9584 15.987C48.9584 15.4056 48.7275 14.848 48.3163 14.4369C47.9052 14.0258 47.3476 13.7948 46.7662 13.7948H7.30647C6.72506 13.7948 6.16746 14.0258 5.75634 14.4369C5.34522 14.848 5.11426 15.4056 5.11426 15.987C5.11426 16.5684 5.34522 17.126 5.75634 17.5371C6.16746 17.9483 6.72506 18.1792 7.30647 18.1792ZM46.7662 35.7169H7.30647C6.72506 35.7169 6.16746 35.9478 5.75634 36.359C5.34522 36.7701 5.11426 37.3277 5.11426 37.9091C5.11426 38.4905 5.34522 39.0481 5.75634 39.4592C6.16746 39.8703 6.72506 40.1013 7.30647 40.1013H46.7662C47.3476 40.1013 47.9052 39.8703 48.3163 39.4592C48.7275 39.0481 48.9584 38.4905 48.9584 37.9091C48.9584 37.3277 48.7275 36.7701 48.3163 36.359C47.9052 35.9478 47.3476 35.7169 46.7662 35.7169ZM46.7662 24.7558H7.30647C6.72506 24.7558 6.16746 24.9868 5.75634 25.3979C5.34522 25.809 5.11426 26.3666 5.11426 26.9481C5.11426 27.5295 5.34522 28.0871 5.75634 28.4982C6.16746 28.9093 6.72506 29.1403 7.30647 29.1403H46.7662C47.3476 29.1403 47.9052 28.9093 48.3163 28.4982C48.7275 28.0871 48.9584 27.5295 48.9584 26.9481C48.9584 26.3666 48.7275 25.809 48.3163 25.3979C47.9052 24.9868 47.3476 24.7558 46.7662 24.7558Z" fill="black"/>
</svg>
