<svg width="99" height="45" viewBox="0 0 99 45" fill="none" xmlns="http://www.w3.org/2000/svg">
<path d="M24.1391 37.0473V36.9471C23.5378 37.0139 22.8697 37.0473 22.1348 37.0473C19.3956 37.0473 17.0238 36.3124 15.0195 34.8426C13.082 33.306 12.1133 31.0344 12.1133 28.028C12.1133 25.4892 13.082 23.3513 15.0195 21.6142C17.0238 19.8771 19.3956 19.0086 22.1348 19.0086C24.1391 19.0086 26.0432 18.7748 27.8471 18.3071C29.7178 17.8394 31.1542 16.7371 32.1563 15V28.028V37.0473H24.1391ZM22.1348 30.0323C22.6693 30.0323 23.137 29.8318 23.5378 29.431C23.9387 29.0301 24.1391 28.5625 24.1391 28.028C24.1391 27.4935 23.9387 27.0258 23.5378 26.625C23.137 26.2241 22.6693 26.0237 22.1348 26.0237C21.6003 26.0237 21.1326 26.2241 20.7318 26.625C20.3309 27.0258 20.1305 27.4935 20.1305 28.028C20.1305 28.5625 20.3309 29.0301 20.7318 29.431C21.1326 29.8318 21.6003 30.0323 22.1348 30.0323Z" fill="#007BFF"/>
<path d="M20.1133 32.5714C20.1133 33.4762 20.5799 34.1321 21.5133 34.5393C22.5133 34.9012 23.6133 35.0821 24.8133 35.0821C26.0133 35.0821 27.1133 34.9238 28.1133 34.6071C27.0466 35.7833 25.7466 36.6429 24.2133 37.1857C22.7466 37.7286 21.2799 38 19.8133 38C17.8133 38 16.0133 37.525 14.4133 36.575C12.8799 35.625 12.1133 34.2905 12.1133 32.5714V1.35714L20.1133 0V32.5714Z" fill="#007BFF"/>
<path d="M12.1133 24C12.1133 24.6667 11.6466 25.15 10.7133 25.45C9.71328 25.7167 8.61328 25.85 7.41328 25.85C6.21328 25.85 5.11328 25.7333 4.11328 25.5C5.17995 26.3667 6.47995 27 8.01328 27.4C9.47995 27.8 10.9466 28 12.4133 28C14.4133 28 16.2133 27.65 17.8133 26.95C19.3466 26.25 20.1133 25.2667 20.1133 24V1L12.1133 0V24Z" fill="#007BFF"/>
<path d="M8.01722 27.9807C8.01722 28.5152 8.21765 28.9828 8.61851 29.3837C9.01937 29.7845 9.48704 29.985 10.0215 29.985V37C7.28231 37 4.91055 36.2651 2.90624 34.7953C0.968747 33.2587 0 30.9871 0 27.9807C0 25.4419 0.968747 23.304 2.90624 21.5669C4.91055 19.8298 7.28231 18.9613 10.0215 18.9613C12.7607 18.9613 15.0991 19.8298 17.0366 21.5669C19.0409 23.304 20.043 25.4419 20.043 27.9807H8.01722ZM11.7252 26.9785C11.6584 26.8449 11.5582 26.7113 11.4245 26.5777C11.0237 26.1768 10.556 25.9764 10.0215 25.9764C9.15299 25.9764 8.5851 26.3104 8.31786 26.9785H11.7252Z" fill="#007BFF"/>
<path d="M43.5202 37.36C42.0082 37.36 40.6402 37.108 39.4162 36.604C38.1922 36.076 37.1482 35.368 36.2842 34.48C35.4202 33.568 34.7482 32.536 34.2682 31.384C33.8122 30.208 33.5842 28.972 33.5842 27.676C33.5842 25.876 33.9802 24.232 34.7722 22.744C35.5882 21.256 36.7402 20.068 38.2282 19.18C39.7402 18.268 41.5162 17.812 43.5562 17.812C45.6202 17.812 47.3842 18.268 48.8482 19.18C50.3122 20.068 51.4282 21.256 52.1962 22.744C52.9882 24.208 53.3842 25.792 53.3842 27.496C53.3842 27.784 53.3722 28.084 53.3482 28.396C53.3242 28.684 53.3002 28.924 53.2762 29.116H38.6962C38.7922 30.076 39.0682 30.916 39.5242 31.636C40.0042 32.356 40.6042 32.908 41.3242 33.292C42.0682 33.652 42.8602 33.832 43.7002 33.832C44.6602 33.832 45.5602 33.604 46.4002 33.148C47.2642 32.668 47.8522 32.044 48.1642 31.276L52.3042 32.428C51.8482 33.388 51.1882 34.24 50.3242 34.984C49.4842 35.728 48.4882 36.316 47.3362 36.748C46.1842 37.156 44.9122 37.36 43.5202 37.36ZM38.5882 26.056H48.4522C48.3562 25.096 48.0802 24.268 47.6242 23.572C47.1922 22.852 46.6162 22.3 45.8962 21.916C45.1762 21.508 44.3722 21.304 43.4842 21.304C42.6202 21.304 41.8282 21.508 41.1082 21.916C40.4122 22.3 39.8362 22.852 39.3802 23.572C38.9482 24.268 38.6842 25.096 38.5882 26.056ZM56.287 10.72H61.111V30.952C61.111 31.816 61.255 32.404 61.543 32.716C61.831 33.004 62.227 33.148 62.731 33.148C63.115 33.148 63.511 33.1 63.919 33.004C64.327 32.908 64.687 32.788 64.999 32.644L65.647 36.316C64.999 36.628 64.243 36.868 63.379 37.036C62.515 37.204 61.735 37.288 61.039 37.288C59.527 37.288 58.351 36.892 57.511 36.1C56.695 35.284 56.287 34.132 56.287 32.644V10.72ZM67.7127 10.72H72.5367V30.952C72.5367 31.816 72.6807 32.404 72.9687 32.716C73.2567 33.004 73.6527 33.148 74.1567 33.148C74.5407 33.148 74.9367 33.1 75.3447 33.004C75.7527 32.908 76.1127 32.788 76.4247 32.644L77.0727 36.316C76.4247 36.628 75.6687 36.868 74.8047 37.036C73.9407 37.204 73.1607 37.288 72.4647 37.288C70.9527 37.288 69.7767 36.892 68.9367 36.1C68.1207 35.284 67.7127 34.132 67.7127 32.644V10.72ZM77.8785 31.42C77.8785 30.196 78.2145 29.128 78.8865 28.216C79.5825 27.28 80.5425 26.56 81.7665 26.056C82.9905 25.552 84.3945 25.3 85.9785 25.3C86.7705 25.3 87.5745 25.36 88.3905 25.48C89.2065 25.6 89.9145 25.792 90.5145 26.056V25.048C90.5145 23.848 90.1545 22.924 89.4345 22.276C88.7385 21.628 87.6945 21.304 86.3025 21.304C85.2705 21.304 84.2865 21.484 83.3505 21.844C82.4145 22.204 81.4305 22.732 80.3985 23.428L78.8505 20.26C80.0985 19.444 81.3705 18.832 82.6665 18.424C83.9865 18.016 85.3665 17.812 86.8065 17.812C89.4945 17.812 91.5825 18.484 93.0705 19.828C94.5825 21.172 95.3385 23.092 95.3385 25.588V31.6C95.3385 32.104 95.4225 32.464 95.5905 32.68C95.7825 32.896 96.0825 33.028 96.4905 33.076V37C96.0585 37.072 95.6625 37.132 95.3025 37.18C94.9665 37.228 94.6785 37.252 94.4385 37.252C93.4785 37.252 92.7465 37.036 92.2425 36.604C91.7625 36.172 91.4625 35.644 91.3425 35.02L91.2345 34.048C90.4185 35.104 89.3985 35.92 88.1745 36.496C86.9505 37.072 85.7025 37.36 84.4305 37.36C83.1825 37.36 82.0545 37.108 81.0465 36.604C80.0625 36.076 79.2825 35.368 78.7065 34.48C78.1545 33.568 77.8785 32.548 77.8785 31.42ZM89.6145 32.392C89.8785 32.104 90.0945 31.816 90.2625 31.528C90.4305 31.24 90.5145 30.976 90.5145 30.736V28.828C89.9385 28.588 89.3145 28.408 88.6425 28.288C87.9705 28.144 87.3345 28.072 86.7345 28.072C85.4865 28.072 84.4545 28.348 83.6385 28.9C82.8465 29.428 82.4505 30.136 82.4505 31.024C82.4505 31.504 82.5825 31.96 82.8465 32.392C83.1105 32.824 83.4945 33.172 83.9985 33.436C84.5025 33.7 85.1025 33.832 85.7985 33.832C86.5185 33.832 87.2265 33.7 87.9225 33.436C88.6185 33.148 89.1825 32.8 89.6145 32.392Z" fill="white"/>
</svg>
