<svg width="99" height="45" viewBox="0 0 99 45" fill="none" xmlns="http://www.w3.org/2000/svg">
<path d="M24.5825 37.0473V36.9471C23.9812 37.0139 23.3131 37.0473 22.5782 37.0473C19.8389 37.0473 17.4672 36.3124 15.4629 34.8426C13.5254 33.306 12.5566 31.0344 12.5566 28.028C12.5566 25.4892 13.5254 23.3513 15.4629 21.6142C17.4672 19.8771 19.8389 19.0086 22.5782 19.0086C24.5825 19.0086 26.4866 18.7748 28.2904 18.3071C30.1611 17.8394 31.5975 16.7371 32.5997 15V28.028V37.0473H24.5825ZM22.5782 30.0323C23.1126 30.0323 23.5803 29.8318 23.9812 29.431C24.382 29.0301 24.5825 28.5625 24.5825 28.028C24.5825 27.4935 24.382 27.0258 23.9812 26.625C23.5803 26.2241 23.1126 26.0237 22.5782 26.0237C22.0437 26.0237 21.576 26.2241 21.1751 26.625C20.7743 27.0258 20.5739 27.4935 20.5739 28.028C20.5739 28.5625 20.7743 29.0301 21.1751 29.431C21.576 29.8318 22.0437 30.0323 22.5782 30.0323Z" fill="#007BFF"/>
<path d="M20.5566 32.5714C20.5566 33.4762 21.0233 34.1321 21.9566 34.5393C22.9566 34.9012 24.0566 35.0821 25.2566 35.0821C26.4566 35.0821 27.5566 34.9238 28.5566 34.6071C27.49 35.7833 26.19 36.6429 24.6566 37.1857C23.19 37.7286 21.7233 38 20.2566 38C18.2566 38 16.4566 37.525 14.8566 36.575C13.3233 35.625 12.5566 34.2905 12.5566 32.5714V1.35714L20.5566 0V32.5714Z" fill="#007BFF"/>
<path d="M12.5566 24C12.5566 24.6667 12.09 25.15 11.1566 25.45C10.1566 25.7167 9.05664 25.85 7.85664 25.85C6.65664 25.85 5.55664 25.7333 4.55664 25.5C5.62331 26.3667 6.92331 27 8.45664 27.4C9.92331 27.8 11.39 28 12.8566 28C14.8566 28 16.6566 27.65 18.2566 26.95C19.79 26.25 20.5566 25.2667 20.5566 24V1L12.5566 0V24Z" fill="#007BFF"/>
<path d="M8.46058 27.9808C8.46058 28.5153 8.66101 28.9829 9.06187 29.3838C9.46273 29.7847 9.9304 29.9851 10.4649 29.9851V37.0002C7.72566 37.0002 5.3539 36.2653 3.3496 34.7954C1.41211 33.2588 0.443359 30.9873 0.443359 27.9808C0.443359 25.442 1.41211 23.3041 3.3496 21.567C5.3539 19.83 7.72566 18.9614 10.4649 18.9614C13.2041 18.9614 15.5424 19.83 17.4799 21.567C19.4842 23.3041 20.4864 25.442 20.4864 27.9808H8.46058ZM12.1685 26.9786C12.1017 26.845 12.0015 26.7114 11.8679 26.5778C11.467 26.1769 10.9994 25.9765 10.4649 25.9765C9.59635 25.9765 9.02846 26.3105 8.76122 26.9786H12.1685Z" fill="#007BFF"/>
<path d="M43.9635 37.36C42.4515 37.36 41.0835 37.108 39.8595 36.604C38.6355 36.076 37.5915 35.368 36.7275 34.48C35.8635 33.568 35.1915 32.536 34.7115 31.384C34.2555 30.208 34.0275 28.972 34.0275 27.676C34.0275 25.876 34.4235 24.232 35.2155 22.744C36.0315 21.256 37.1835 20.068 38.6715 19.18C40.1835 18.268 41.9595 17.812 43.9995 17.812C46.0635 17.812 47.8275 18.268 49.2915 19.18C50.7555 20.068 51.8715 21.256 52.6395 22.744C53.4315 24.208 53.8275 25.792 53.8275 27.496C53.8275 27.784 53.8155 28.084 53.7915 28.396C53.7675 28.684 53.7435 28.924 53.7195 29.116H39.1395C39.2355 30.076 39.5115 30.916 39.9675 31.636C40.4475 32.356 41.0475 32.908 41.7675 33.292C42.5115 33.652 43.3035 33.832 44.1435 33.832C45.1035 33.832 46.0035 33.604 46.8435 33.148C47.7075 32.668 48.2955 32.044 48.6075 31.276L52.7475 32.428C52.2915 33.388 51.6315 34.24 50.7675 34.984C49.9275 35.728 48.9315 36.316 47.7795 36.748C46.6275 37.156 45.3555 37.36 43.9635 37.36ZM39.0315 26.056H48.8955C48.7995 25.096 48.5235 24.268 48.0675 23.572C47.6355 22.852 47.0595 22.3 46.3395 21.916C45.6195 21.508 44.8155 21.304 43.9275 21.304C43.0635 21.304 42.2715 21.508 41.5515 21.916C40.8555 22.3 40.2795 22.852 39.8235 23.572C39.3915 24.268 39.1275 25.096 39.0315 26.056ZM56.7303 10.72H61.5543V30.952C61.5543 31.816 61.6983 32.404 61.9863 32.716C62.2743 33.004 62.6703 33.148 63.1743 33.148C63.5583 33.148 63.9543 33.1 64.3623 33.004C64.7703 32.908 65.1303 32.788 65.4423 32.644L66.0903 36.316C65.4423 36.628 64.6863 36.868 63.8223 37.036C62.9583 37.204 62.1783 37.288 61.4823 37.288C59.9703 37.288 58.7943 36.892 57.9543 36.1C57.1383 35.284 56.7303 34.132 56.7303 32.644V10.72ZM68.1561 10.72H72.9801V30.952C72.9801 31.816 73.1241 32.404 73.4121 32.716C73.7001 33.004 74.0961 33.148 74.6001 33.148C74.9841 33.148 75.3801 33.1 75.7881 33.004C76.1961 32.908 76.5561 32.788 76.8681 32.644L77.5161 36.316C76.8681 36.628 76.1121 36.868 75.2481 37.036C74.3841 37.204 73.6041 37.288 72.9081 37.288C71.3961 37.288 70.2201 36.892 69.3801 36.1C68.5641 35.284 68.1561 34.132 68.1561 32.644V10.72ZM78.3219 31.42C78.3219 30.196 78.6579 29.128 79.3299 28.216C80.0259 27.28 80.9859 26.56 82.2099 26.056C83.4339 25.552 84.8379 25.3 86.4219 25.3C87.2139 25.3 88.0179 25.36 88.8339 25.48C89.6499 25.6 90.3579 25.792 90.9579 26.056V25.048C90.9579 23.848 90.5979 22.924 89.8779 22.276C89.1819 21.628 88.1379 21.304 86.7459 21.304C85.7139 21.304 84.7299 21.484 83.7939 21.844C82.8579 22.204 81.8739 22.732 80.8419 23.428L79.2939 20.26C80.5419 19.444 81.8139 18.832 83.1099 18.424C84.4299 18.016 85.8099 17.812 87.2499 17.812C89.9379 17.812 92.0259 18.484 93.5139 19.828C95.0259 21.172 95.7819 23.092 95.7819 25.588V31.6C95.7819 32.104 95.8659 32.464 96.0339 32.68C96.2259 32.896 96.5259 33.028 96.9339 33.076V37C96.5019 37.072 96.1059 37.132 95.7459 37.18C95.4099 37.228 95.1219 37.252 94.8819 37.252C93.9219 37.252 93.1899 37.036 92.6859 36.604C92.2059 36.172 91.9059 35.644 91.7859 35.02L91.6779 34.048C90.8619 35.104 89.8419 35.92 88.6179 36.496C87.3939 37.072 86.1459 37.36 84.8739 37.36C83.6259 37.36 82.4979 37.108 81.4899 36.604C80.5059 36.076 79.7259 35.368 79.1499 34.48C78.5979 33.568 78.3219 32.548 78.3219 31.42ZM90.0579 32.392C90.3219 32.104 90.5379 31.816 90.7059 31.528C90.8739 31.24 90.9579 30.976 90.9579 30.736V28.828C90.3819 28.588 89.7579 28.408 89.0859 28.288C88.4139 28.144 87.7779 28.072 87.1779 28.072C85.9299 28.072 84.8979 28.348 84.0819 28.9C83.2899 29.428 82.8939 30.136 82.8939 31.024C82.8939 31.504 83.0259 31.96 83.2899 32.392C83.5539 32.824 83.9379 33.172 84.4419 33.436C84.9459 33.7 85.5459 33.832 86.2419 33.832C86.9619 33.832 87.6699 33.7 88.3659 33.436C89.0619 33.148 89.6259 32.8 90.0579 32.392Z" fill="black"/>
</svg>
