<svg width="48" height="48" viewBox="0 0 48 48" fill="none" xmlns="http://www.w3.org/2000/svg">
<rect width="48" height="48" rx="24" fill="white"/>
<path d="M29.2167 34.8411C27.3365 38.552 24.7797 38.9462 24.0257 38.9837V38.9867C24.0257 38.9867 24.0477 38.9885 23.9914 38.9873C23.9352 38.9885 23.9572 38.9867 23.9572 38.9867V38.9837C23.2718 38.9528 21.4922 38.6783 19.8048 36.4946C19.4487 36.0339 19.0956 35.488 18.7679 34.8411C16.5836 30.5304 18.1719 28.3104 18.1719 28.3104L23.9572 28.2965V28.2959L23.9914 28.2965L24.0257 28.2959V28.2965L26.4907 28.3026L29.8207 28.3104C29.8207 28.3104 31.401 30.5304 29.2167 34.8411Z" fill="url(#paint0_linear_351_10)"/>
<path d="M24.0003 29.1442C20.7562 29.1442 18.1263 28.8111 18.1263 28.4002C18.1263 27.9893 20.7562 27.6562 24.0003 27.6562C27.2444 27.6562 29.8743 27.9893 29.8743 28.4002C29.8743 28.8111 27.2444 29.1442 24.0003 29.1442Z" fill="url(#paint1_linear_351_10)"/>
<path opacity="0.3" d="M29.2166 34.841C27.3364 38.5519 24.7796 38.9461 24.0256 38.9836V38.9866C24.0256 38.9866 24.0476 38.9884 23.9914 38.9872C23.9351 38.9884 23.9571 38.9866 23.9571 38.9866V38.9836C23.2717 38.9528 21.4922 38.6783 19.8048 36.4945C19.8145 34.4837 24.4799 33.1174 25.9376 32.1851C27.7815 31.0062 26.2979 28.4004 26.2979 28.4004C26.3693 28.3666 26.4388 28.3339 26.5083 28.3025L29.8295 28.3104C29.8295 28.3104 31.401 30.5303 29.2166 34.841Z" fill="url(#paint2_linear_351_10)"/>
<path d="M15.063 21.8643C13.3713 21.8643 12 20.1096 12 17.945C12 15.7804 13.3713 14.0256 15.063 14.0256C16.7546 14.0256 18.126 15.7804 18.126 17.945C18.126 20.1096 16.7546 21.8643 15.063 21.8643Z" fill="url(#paint3_linear_351_10)"/>
<path d="M34.4075 18.8281C34.4075 23.704 29.5835 27.6561 23.6332 27.6561C22.7191 27.6561 21.8322 27.563 20.9846 27.3871C16.3148 26.4204 12.859 22.9549 12.859 18.8281C12.859 13.9527 17.683 10 23.6332 10C25.3049 10 26.8877 10.312 28.3 10.8688C31.9136 12.2938 34.4075 15.3227 34.4075 18.8281Z" fill="url(#paint4_linear_351_10)"/>
<path d="M16.4384 22.8577L24.7457 23.5828C26.5821 23.743 28.1664 22.3065 28.2306 20.3538L28.2991 18.2702C28.3286 17.374 27.6424 16.6264 26.778 16.6041L14.9355 16.2987C14.2477 16.281 13.6968 16.9061 13.6968 17.6922V19.5211C13.6968 21.2371 14.9065 22.724 16.4384 22.8577Z" fill="#F4F7FA"/>
<path d="M16.2388 21.6664L25.1278 22.3207C26.4405 22.4174 27.5622 21.3797 27.6057 19.9932L27.6347 19.073C27.6626 18.1838 26.9839 17.439 26.1301 17.4128L15.5332 17.0889C14.8383 17.0677 14.2809 17.6921 14.2799 18.4809L14.2788 19.2976C14.2772 20.5288 15.1457 21.5859 16.2388 21.6664Z" fill="url(#paint5_linear_351_10)"/>
<path d="M21.4502 20.8702C21.3665 20.7327 21.3159 20.5809 21.3187 20.4203C21.3277 19.9 21.8491 19.5032 22.49 19.5355C23.1383 19.5683 23.6597 20.0266 23.6477 20.5578C23.6441 20.7216 23.5853 20.8698 23.493 20.9989L21.4502 20.8702Z" fill="#D8DEE8"/>
<path d="M15.9804 20.5255C15.9034 20.3949 15.8559 20.2506 15.8566 20.0979C15.859 19.6028 16.3256 19.2241 16.9045 19.2533C17.4896 19.2828 17.9648 19.7171 17.9599 20.222C17.9584 20.3777 17.9071 20.5188 17.8253 20.6417L15.9804 20.5255Z" fill="#D8DEE8"/>
<path opacity="0.3" d="M34.4075 18.8282C34.4075 23.7041 29.5835 27.6563 23.6332 27.6563C22.7191 27.6563 21.8322 27.5632 20.9846 27.3872C20.1466 24.7422 24.8823 21.8414 27.606 19.9932C30.9426 17.7291 28.3 10.8689 28.3 10.8689C31.9136 12.2939 34.4075 15.3228 34.4075 18.8282Z" fill="url(#paint6_linear_351_10)"/>
<path d="M32.937 23.4014C31.2453 23.4014 29.874 21.6467 29.874 19.4821C29.874 17.3175 31.2453 15.5627 32.937 15.5627C34.6286 15.5627 36 17.3175 36 19.4821C36 21.6467 34.6286 23.4014 32.937 23.4014Z" fill="url(#paint7_linear_351_10)"/>
<defs>
<linearGradient id="paint0_linear_351_10" x1="23.8427" y1="-4.72934" x2="24.1325" y2="63.068" gradientUnits="userSpaceOnUse">
<stop stop-color="#007BFF"/>
<stop offset="0.9964" stop-color="#6165D7"/>
</linearGradient>
<linearGradient id="paint1_linear_351_10" x1="23.9775" y1="23.063" x2="24.0178" y2="32.4945" gradientUnits="userSpaceOnUse">
<stop stop-color="#444B8C"/>
<stop offset="0.9964" stop-color="#26264F"/>
</linearGradient>
<linearGradient id="paint2_linear_351_10" x1="24.9275" y1="-4.62057" x2="25.2165" y2="63.0008" gradientUnits="userSpaceOnUse">
<stop stop-color="#007BFF"/>
<stop offset="0.9964" stop-color="#6165D7"/>
</linearGradient>
<linearGradient id="paint3_linear_351_10" x1="12" y1="17.945" x2="18.126" y2="17.945" gradientUnits="userSpaceOnUse">
<stop stop-color="#444B8C"/>
<stop offset="0.9964" stop-color="#26264F"/>
</linearGradient>
<linearGradient id="paint4_linear_351_10" x1="12.859" y1="18.8281" x2="34.4075" y2="18.8281" gradientUnits="userSpaceOnUse">
<stop stop-color="#007BFF"/>
<stop offset="0.9964" stop-color="#007BFF"/>
</linearGradient>
<linearGradient id="paint5_linear_351_10" x1="27.6355" y1="19.7077" x2="14.2788" y2="19.7077" gradientUnits="userSpaceOnUse">
<stop stop-color="#444B8C"/>
<stop offset="0.9964" stop-color="#26264F"/>
</linearGradient>
<linearGradient id="paint6_linear_351_10" x1="27.375" y1="-40.8533" x2="27.829" y2="65.3664" gradientUnits="userSpaceOnUse">
<stop stop-color="#007BFF"/>
<stop offset="0.9964" stop-color="#007BFF"/>
</linearGradient>
<linearGradient id="paint7_linear_351_10" x1="29.874" y1="19.4821" x2="36" y2="19.4821" gradientUnits="userSpaceOnUse">
<stop stop-color="#444B8C"/>
<stop offset="0.9964" stop-color="#26264F"/>
</linearGradient>
</defs>
</svg>
